<?xml version="1.0" encoding="utf-8"?>
<!-- Generator: Adobe Illustrator 19.2.1, SVG Export Plug-In . SVG Version: 6.00 Build 0)  -->
<svg version="1.1" id="Layer_1" xmlns="http://www.w3.org/2000/svg" xmlns:xlink="http://www.w3.org/1999/xlink" x="0px" y="0px"
	 viewBox="0 0 100 100" style="enable-background:new 0 0 100 100;" xml:space="preserve">
<style type="text/css">
	.st0{opacity:0.76;}
	.st1{fill:#010101;}
</style>
<title>bus</title>
<g>
	<g id="Web_left_panel_text">
		<g class="st0">
			<path class="st1" d="M91.3,24.4c-0.8-8-2.1-14.2-4.2-16.7c-8.5-10.1-68.2-10.8-74.9,0c-1.7,2.6-2.8,8.9-3.6,16.7
				c-2.5,0.3-4.5,2.4-4.5,5v9.8c0,2.1,1.3,4,3.3,4.8C6.9,59.4,7.3,75.5,8,83.5c0,6.2,4.2,5.2,4.2,5.2H16v6.7c0,2.7,2.7,4.8,6.1,4.8
				s6.1-2.1,6.1-4.8v-6.7h45.3v6.7c0,2.7,2.7,4.8,6.1,4.8s6.1-2.1,6.1-4.8v-6.7H87c0,0,4.9,0.7,5.2-2.2c0-8,0.5-25.7,0.1-42.5
				c2.1-0.6,3.6-2.6,3.5-4.8v-9.8C95.9,26.7,93.9,24.6,91.3,24.4z M26.7,9.1h45.8V16H26.7V9.1z M27.4,80.8c-3.6,0-6.5-2.9-6.5-6.5
				s2.9-6.5,6.5-6.5c3.6,0,6.5,2.9,6.5,6.5C33.9,77.9,31,80.8,27.4,80.8L27.4,80.8z M72.3,80.8c-3.6,0-6.5-2.9-6.5-6.5
				s2.9-6.5,6.5-6.5c3.6,0,6.5,2.9,6.5,6.5C78.8,77.9,75.9,80.8,72.3,80.8L72.3,80.8z M80.5,52.3H18.7V19.9h61.9L80.5,52.3
				L80.5,52.3z"/>
		</g>
	</g>
</g>
</svg>
