<svg xmlns="http://www.w3.org/2000/svg" viewBox="0 0 103.28 91.8"><defs><style>.cls-1{isolation:isolate;}.cls-2{opacity:0.76;mix-blend-mode:darken;}.cls-3{fill:#010101;}</style></defs><title>car</title><g class="cls-1"><g id="Web_left_panel_text" data-name="Web left panel text"><g class="cls-2"><g id="time-to-leave"><path class="cls-3" d="M706.23,912.72a8.63,8.63,0,0,0-8-5.74H635.08a8.1,8.1,0,0,0-8,5.74l-12,34.43V993a5.42,5.42,0,0,0,5.74,5.74h5.74a5.42,5.42,0,0,0,5.74-5.74v-5.74h68.85V993a5.42,5.42,0,0,0,5.74,5.74h5.74a5.42,5.42,0,0,0,5.74-5.74v-45.9ZM635.08,970.1a8.61,8.61,0,1,1,8.61-8.61A8.82,8.82,0,0,1,635.08,970.1Zm63.12,0a8.61,8.61,0,1,1,8.61-8.61A8.82,8.82,0,0,1,698.2,970.1Zm-71.72-28.69,8.61-25.82H698.2l8.61,25.82H626.48Z" transform="translate(-615 -906.98)"/></g></g></g></g></svg>