<?xml version="1.0" encoding="utf-8"?>
<!-- Generator: Adobe Illustrator 19.2.1, SVG Export Plug-In . SVG Version: 6.00 Build 0)  -->
<svg version="1.1" id="Layer_1" xmlns="http://www.w3.org/2000/svg" xmlns:xlink="http://www.w3.org/1999/xlink" x="0px" y="0px"
	 viewBox="0 0 100 100" style="enable-background:new 0 0 100 100;" xml:space="preserve">
<style type="text/css">
	.st0{opacity:0.76;}
	.st1{fill:#010101;}
</style>
<title>train</title>
<g>
	<g id="Web_left_panel_text">
		<g class="st0">
			<g id="Layer_1_1_">
				<path class="st1" d="M88.5,92.8L74.2,66.6c4.1-0.7,7.1-4.2,7.1-8.4V19.7C81.3,9.4,72.9,1,62.6,1H38.2C27.7,1,19.3,9.5,19.3,19.9
					v38.4c-0.1,4.2,3,7.7,7.1,8.4L12.3,92.8c-1.1,2-0.4,4.6,1.6,5.7c0,0,0.1,0,0.1,0c0.6,0.3,1.3,0.5,1.9,0.4c1.5,0,2.9-0.8,3.6-2.1
					l1.3-2.1H80l1.3,2.1c0.7,1.4,2.1,2.2,3.6,2.1c0.7,0,1.3-0.2,1.9-0.4C88.9,97.4,89.7,94.9,88.5,92.8
					C88.6,92.8,88.6,92.8,88.5,92.8z M68.4,73.5h-36l3.6-6.7h28.8L68.4,73.5z M67.8,59.1c-3.4,0-6.2-2.8-6.2-6.2s2.8-6.2,6.2-6.2
					s6.2,2.8,6.2,6.2C73.9,56.3,71.2,59.1,67.8,59.1L67.8,59.1z M26.8,22.2c0-6.6,5.2-11.9,11.8-12H62c6.6,0.1,11.9,5.4,12,12v10.3
					c0,2.3-1.9,4.1-4.2,4.1c0,0-0.1,0-0.1,0H31.1c-2.2,0-4.1-1.8-4.1-4.1c0,0,0,0,0,0L26.8,22.2L26.8,22.2z M33,46.5
					c3.4,0,6.2,2.8,6.2,6.2s-2.8,6.2-6.2,6.2c-3.4,0-6.2-2.8-6.2-6.2C26.8,49.3,29.6,46.5,33,46.5L33,46.5z M24.2,88.3l4.7-8.4h42.9
					l4.7,8.4H24.2z"/>
			</g>
		</g>
	</g>
</g>
</svg>
