<?xml version="1.0" standalone="no"?>
<!DOCTYPE svg PUBLIC "-//W3C//DTD SVG 20010904//EN"
 "http://www.w3.org/TR/2001/REC-SVG-20010904/DTD/svg10.dtd">
<svg version="1.0" xmlns="http://www.w3.org/2000/svg"
 width="1000.000000pt" height="1000.000000pt" viewBox="0 0 1000.000000 1000.000000"
 preserveAspectRatio="xMidYMid meet">
<metadata>
Created by potrace 1.11, written by Peter Selinger 2001-2013
</metadata>
<g transform="translate(0.000000,1000.000000) scale(0.100000,-0.100000)"
fill="#000000" stroke="none">
<path d="M1680 7410 l0 -1160 1170 0 1170 0 0 -2410 0 -2410 763 0 764 0 6
1223 c4 672 7 1656 7 2187 l0 965 1382 1382 1383 1383 -3323 0 -3322 0 0
-1160z m818 858 l3 -78 -121 0 -120 0 0 -355 0 -355 -85 0 -85 0 0 355 0 355
-115 0 -115 0 0 80 0 80 318 -2 317 -3 3 -77z m2282 -13 l0 -76 -72 3 -73 3
-3 73 -3 72 76 0 75 0 0 -75z m920 0 l0 -76 -72 3 -73 3 -3 73 -3 72 76 0 75
0 0 -75z m-652 -57 l3 -108 64 0 65 0 0 -50 0 -50 -65 0 -65 0 0 -180 c0 -204
-2 -200 85 -200 l46 0 -3 -57 c-3 -56 -4 -57 -38 -66 -47 -12 -157 -1 -187 19
-46 30 -53 67 -53 284 l0 200 -45 0 -45 0 0 50 0 50 45 0 45 0 0 110 0 111 73
-3 72 -3 3 -107z m-1838 -100 c42 -13 95 -51 112 -81 9 -15 15 -95 19 -257 3
-129 9 -245 13 -257 8 -23 7 -23 -83 -23 -85 0 -91 1 -91 20 0 20 0 20 -42 -1
-66 -34 -183 -38 -242 -9 -84 40 -125 116 -111 207 6 40 15 56 54 94 49 48 76
58 241 93 93 20 104 27 97 58 -18 72 -189 61 -204 -12 -5 -27 -9 -30 -47 -30
-81 0 -116 11 -116 34 0 43 44 110 91 139 68 42 213 53 309 25z m665 -13 c24
-14 50 -41 65 -67 24 -42 25 -48 28 -290 l4 -248 -81 0 -80 0 -3 216 -3 216
-28 24 c-51 44 -133 25 -170 -39 -8 -15 -14 -88 -17 -217 l-5 -195 -77 -3 -78
-3 0 311 0 311 78 -3 c76 -3 77 -3 77 -29 l-1 -27 31 23 c79 58 180 66 260 20z
m-1085 -55 c0 -77 -1 -80 -24 -80 -68 0 -139 -50 -156 -109 -5 -20 -10 -109
-10 -198 l0 -163 -75 0 -75 0 0 310 0 310 75 0 75 0 0 -34 0 -34 29 27 c33 31
79 48 129 50 l32 1 0 -80z m1663 42 c35 -17 72 -41 82 -52 18 -20 18 -21 -30
-70 l-49 -50 -34 34 c-41 43 -89 60 -153 54 -58 -6 -79 -21 -79 -59 0 -37 18
-46 147 -70 59 -11 124 -29 144 -40 147 -75 99 -284 -78 -335 -77 -22 -210
-15 -278 15 -84 37 -152 91 -114 91 6 0 29 16 52 35 39 34 67 45 67 26 0 -20
104 -61 152 -61 83 0 142 45 118 90 -6 11 -12 20 -14 20 -36 0 -241 57 -274
76 -74 44 -100 128 -63 210 53 117 254 160 404 86z m1778 15 c29 -16 52 -38
69 -68 25 -44 25 -46 25 -289 l0 -245 -70 0 -70 0 -5 205 c-5 205 -9 230 -45
260 -22 18 -89 16 -120 -4 -55 -36 -60 -54 -65 -266 l-5 -195 -72 -3 -73 -3 0
306 0 305 75 0 c74 0 75 0 75 -25 l0 -26 28 21 c72 54 180 65 253 27z m-1451
-297 l0 -300 -75 0 -75 0 0 300 0 300 75 0 75 0 0 -300z m918 -2 l-3 -303 -70
0 -70 0 -3 303 -2 302 75 0 75 0 -2 -302z m-3310 -373 c23 -7 65 -27 92 -45
57 -37 126 -109 113 -119 -4 -4 -36 -29 -69 -54 l-61 -46 -32 39 c-54 68 -142
100 -235 86 -66 -10 -106 -47 -106 -97 0 -53 19 -63 181 -99 171 -38 252 -77
296 -142 90 -135 22 -315 -143 -378 -82 -31 -234 -39 -324 -16 -81 21 -162 69
-206 122 -19 23 -34 44 -34 47 0 7 128 97 139 97 4 0 16 -12 28 -28 11 -15 44
-40 74 -57 43 -23 69 -30 134 -33 125 -7 191 33 183 109 -5 49 -38 66 -212
109 -167 41 -215 63 -260 123 -67 87 -46 241 42 318 90 80 258 106 400 64z
m1332 -435 l0 -430 -80 0 c-74 0 -80 1 -80 21 0 20 0 20 -27 1 -119 -82 -294
-36 -365 95 -50 91 -54 246 -9 347 62 141 226 207 354 142 l47 -23 0 138 0
139 80 0 80 0 0 -430z m523 175 c22 -10 51 -36 65 -58 l27 -40 3 -254 3 -253
-71 0 -70 0 0 183 c0 190 -8 245 -41 278 -27 27 -98 26 -134 -3 -48 -38 -55
-70 -55 -273 l0 -185 -80 0 -80 0 0 305 0 305 81 0 c81 0 81 0 77 -25 l-5 -24
26 18 c69 50 181 61 254 26z m603 -5 c86 -42 143 -137 159 -263 l7 -57 -220 0
c-122 0 -223 -4 -226 -9 -9 -14 37 -93 66 -115 42 -30 134 -34 186 -7 22 11
47 30 55 42 l15 21 61 -34 c33 -18 61 -36 61 -40 0 -17 -83 -89 -132 -114 -43
-23 -70 -28 -146 -32 -88 -4 -96 -3 -157 27 -113 56 -165 148 -165 290 0 163
72 267 213 306 67 19 166 12 223 -15z m-2035 -205 l65 -214 53 214 53 215 79
0 c43 0 79 -4 79 -9 0 -33 -197 -675 -219 -716 -35 -63 -92 -95 -165 -95 -93
0 -96 3 -96 82 0 64 1 69 20 63 10 -3 36 -1 57 4 73 20 73 17 -48 357 -60 169
-109 309 -109 311 0 2 38 3 83 3 l84 0 64 -215z m2399 0 c35 -118 66 -215 69
-215 4 0 30 97 60 215 l53 215 74 0 c41 0 74 -3 74 -6 0 -12 -182 -629 -197
-669 -22 -54 -58 -102 -93 -120 -18 -9 -57 -15 -105 -15 l-75 0 0 65 0 65 35
0 c44 0 81 17 92 43 7 15 -15 88 -93 306 -55 157 -104 296 -108 309 -7 22 -6
22 71 22 l79 0 64 -215z m505 -310 l0 -80 -80 0 -80 0 -3 83 -3 83 83 -3 83
-3 0 -80z m-675 -1771 c0 -15 12 -37 28 -54 33 -33 85 -44 186 -38 l66 3 0
-42 0 -43 -186 0 -185 0 3 43 c2 34 6 41 21 39 22 -4 22 4 -3 35 -11 14 -20
39 -20 54 0 28 2 29 45 29 42 0 45 -2 45 -26z m120 -349 c0 -74 2 -135 5 -135
4 0 19 7 35 15 53 27 62 126 14 165 -18 16 -18 19 7 59 l20 33 26 -23 c59 -56
82 -165 49 -242 -56 -134 -288 -141 -351 -10 -26 52 -26 138 1 183 29 50 98
86 172 89 22 1 22 0 22 -134z m240 -310 c21 -21 33 -46 40 -85 20 -103 -11
-190 -77 -217 l-33 -13 0 48 c0 36 5 54 20 67 15 13 20 31 20 66 0 54 -23 79
-72 79 -28 0 -28 0 -13 -30 23 -44 19 -121 -7 -160 -34 -49 -67 -70 -126 -77
-142 -16 -252 111 -195 226 16 32 17 41 7 45 -9 3 -14 21 -14 46 l0 41 210 -3
210 -3 30 -30z m-80 -404 l0 -38 -127 -5 c-116 -5 -128 -7 -145 -28 -24 -30
-23 -53 6 -87 24 -27 27 -28 145 -32 l121 -3 0 -44 0 -44 -185 0 -185 0 0 49
c0 31 5 51 13 54 9 3 9 7 1 18 -19 23 -26 88 -14 124 22 68 43 75 216 75 l154
0 0 -39z m-420 -381 l0 -50 -50 0 -50 0 0 43 c0 24 3 47 7 50 3 4 26 7 50 7
l43 0 0 -50z m293 43 l127 -6 0 -44 0 -43 -185 0 -185 0 0 50 0 50 58 0 c31 0
114 -3 185 -7z m34 -144 c17 -6 47 -28 67 -49 44 -49 55 -99 34 -157 l-15 -42
66 -3 66 -3 3 -47 3 -48 -250 0 -251 0 0 50 c0 28 4 50 9 50 6 0 3 12 -5 28
-33 63 -5 155 60 200 57 39 131 46 213 21z m-659 -427 c3 -142 8 -154 50 -109
39 42 36 96 -9 157 -8 12 -6 24 11 53 l23 38 33 -32 c52 -50 67 -91 62 -169
-4 -82 -37 -132 -106 -162 -61 -27 -157 -21 -207 13 -101 69 -108 231 -13 302
27 20 112 47 138 44 12 -2 16 -26 18 -135z m689 13 c27 -17 48 -39 62 -68 25
-51 26 -85 7 -132 l-15 -35 70 0 69 0 0 -50 0 -50 -250 0 -250 0 0 50 c0 28 5
50 10 50 6 0 4 13 -5 30 -32 61 -10 151 47 192 74 52 177 58 255 13z m-527
-275 l0 -60 -80 -53 -80 -54 23 -21 c18 -17 36 -22 80 -22 l57 0 0 -50 0 -50
-265 0 -265 0 0 50 0 50 142 0 141 0 -66 69 c-66 68 -67 70 -67 125 0 31 4 56
8 56 4 0 37 -29 72 -65 35 -36 67 -65 71 -65 4 0 56 34 115 75 60 41 110 74
112 75 1 0 2 -27 2 -60z m472 -100 c78 -22 138 -103 138 -185 0 -178 -228
-261 -352 -129 -89 95 -52 254 72 308 41 18 91 20 142 6z m-472 -305 c0 -31
-4 -55 -10 -55 -6 0 -4 -13 5 -30 19 -37 19 -113 0 -150 -21 -40 -53 -60 -98
-60 -77 0 -114 39 -137 145 -5 28 -12 60 -15 73 -7 28 -31 29 -46 1 -17 -33
-2 -88 28 -102 23 -10 25 -16 20 -55 -2 -23 -7 -46 -11 -49 -9 -9 -62 16 -84
40 -52 56 -53 194 -2 250 l28 32 154 6 c84 3 156 6 161 7 4 1 7 -23 7 -53z
m508 -115 c66 -47 94 -98 100 -180 4 -61 1 -76 -22 -125 -45 -91 -134 -138
-256 -137 -147 1 -246 75 -270 201 -19 101 27 203 111 247 45 23 56 18 68 -32
12 -48 9 -64 -15 -64 -8 0 -26 -11 -39 -25 -29 -28 -34 -98 -10 -144 40 -79
219 -92 294 -22 60 56 48 150 -24 192 -19 12 -35 25 -35 30 0 22 33 89 45 89
6 0 31 -13 53 -30z m-569 -233 c47 -24 65 -62 69 -143 l4 -74 -57 0 c-57 0
-57 0 -51 26 11 41 -2 80 -30 93 -16 7 -94 11 -214 11 l-190 0 0 50 0 50 223
0 c156 0 229 -4 246 -13z"/>
<path d="M3160 7771 c-8 -5 -50 -16 -94 -24 -85 -17 -116 -37 -116 -73 0 -39
11 -54 50 -64 69 -19 164 16 175 63 4 13 5 42 3 65 -2 33 -6 39 -18 33z"/>
<path d="M3387 7030 c-40 -12 -58 -29 -78 -75 -39 -84 -15 -221 46 -261 34
-22 106 -22 139 -1 44 29 61 73 61 162 0 87 -17 133 -58 160 -31 20 -76 26
-110 15z"/>
<path d="M4655 7050 c-29 -12 -73 -61 -80 -90 l-6 -25 138 0 c153 0 152 -1
116 68 -24 47 -111 71 -168 47z"/>
<path d="M5046 4529 c-36 -28 -37 -89 -1 -124 39 -40 45 -32 45 60 0 47 -4 85
-9 85 -4 0 -20 -9 -35 -21z"/>
<path d="M5054 4126 c-54 -46 -26 -135 47 -150 37 -7 93 15 108 42 19 35 13
81 -14 107 -33 34 -103 35 -141 1z"/>
<path d="M5072 3214 c-32 -22 -43 -57 -31 -92 12 -35 45 -52 103 -52 61 0 96
29 96 80 0 30 -6 43 -26 59 -33 26 -109 28 -142 5z"/>
<path d="M4465 2908 c-29 -16 -35 -28 -35 -70 0 -37 26 -78 50 -78 6 0 10 33
10 80 0 44 -1 80 -2 80 -2 0 -12 -6 -23 -12z"/>
<path d="M5064 2807 c-63 -55 -18 -137 75 -137 66 0 101 27 101 80 0 53 -35
80 -101 80 -36 0 -55 -6 -75 -23z"/>
<path d="M5075 2418 c-31 -18 -44 -40 -45 -73 -1 -108 182 -124 214 -19 8 26
-9 73 -32 90 -21 16 -110 17 -137 2z"/>
<path d="M4560 2148 c5 -13 11 -39 15 -59 3 -21 12 -42 20 -49 20 -17 55 -3
56 23 4 72 -18 107 -66 107 -32 0 -34 -2 -25 -22z"/>
</g>
</svg>
