<?xml version="1.0" encoding="utf-8"?>
<!-- Generator: Adobe Illustrator 19.2.1, SVG Export Plug-In . SVG Version: 6.00 Build 0)  -->
<svg version="1.1" id="Layer_1" xmlns="http://www.w3.org/2000/svg" xmlns:xlink="http://www.w3.org/1999/xlink" x="0px" y="0px"
	 viewBox="0 0 500 500" style="enable-background:new 0 0 500 500;" xml:space="preserve">
<style type="text/css">
	.st0{fill:#CC1977;}
</style>
<title>car</title>
<g>
	<g id="Web_left_panel_text">
		<g>
			<g id="time-to-leave">
				<path class="st0" d="M440.8,56.1c-5.8-16.4-21.3-27.5-38.6-27.5H97.4C79.5,28,64.1,39.2,58.8,56.1l-58,166.1v221.7
					c-1,14.5,10.1,27,24.6,27.5c1,0,1.9,0,3.4,0h27.5c14.5,1,27-10.1,27.5-24.6c0-1,0-1.9,0-3.4v-27.5h332.3v28
					c-1,14.5,10.1,27,24.6,27.5c1,0,1.9,0,3.4,0h27.5c14.5,1,27-10.1,27.5-24.6c0-1,0-1.9,0-3.4V222.2L440.8,56.1z M97.4,333.3
					c-23.2,0-41.5-18.8-41.5-41.5c0-23.2,18.8-41.5,41.5-41.5c23.2,0,41.5,18.8,41.5,41.5l0,0C138.5,314.5,120.1,332.8,97.4,333.3z
					 M402.2,333.3c-23.2,0-41.5-18.8-41.5-41.5c0-23.2,18.8-41.5,41.5-41.5c23.2,0,41.5,18.8,41.5,41.5l0,0
					C443.2,314.5,424.9,332.8,402.2,333.3z M55.9,194.7L97.4,70.1h304.8l41.5,124.6H55.9z"/>
			</g>
		</g>
	</g>
</g>
</svg>
