<svg xmlns="http://www.w3.org/2000/svg" viewBox="0 0 91.85 100.36"><defs><style>.cls-1{isolation:isolate;}.cls-2{opacity:0.76;mix-blend-mode:darken;}.cls-3{fill:#010101;}</style></defs><title>bus</title><g class="cls-1"><g id="Web_left_panel_text" data-name="Web left panel text"><g class="cls-2"><path class="cls-3" d="M700.91,472.43c-0.82-8-2.12-14.25-4.19-16.7-8.51-10.08-68.16-10.82-74.93,0-1.66,2.65-2.82,8.87-3.6,16.71a5.05,5.05,0,0,0-4.47,5v9.81A5.06,5.06,0,0,0,617,492c-0.46,15.46-.09,31.58.6,39.6,0,6.19,4.16,5.16,4.16,5.16h3.9v6.68c0,2.65,2.73,4.8,6.1,4.8s6.1-2.14,6.1-4.8v-6.68h45.35v6.68c0,2.65,2.73,4.8,6.1,4.8s6.1-2.14,6.1-4.8v-6.68h1.28s4.89,0.67,5.21-2.24c0-8,.5-25.72.09-42.45a5,5,0,0,0,3.55-4.81v-9.81A5,5,0,0,0,700.91,472.43Zm-64.55-15.26h45.8v6.93h-45.8v-6.93ZM637,528.88a6.51,6.51,0,1,1,6.51-6.51A6.51,6.51,0,0,1,637,528.88Zm44.9,0a6.51,6.51,0,1,1,6.51-6.51A6.52,6.52,0,0,1,681.91,528.88Zm8.28-28.49H628.32V467.94h61.86v32.45Z" transform="translate(-613.72 -447.89)"/></g></g></g></svg>