<svg xmlns="http://www.w3.org/2000/svg" viewBox="0 0 86.99 110.2"><defs><style>.cls-1{isolation:isolate;}.cls-2{opacity:0.76;mix-blend-mode:darken;}.cls-3{fill:#010101;}</style></defs><title>train</title><g class="cls-1"><g id="Web_left_panel_text" data-name="Web left panel text"><g class="cls-2"><g id="Layer_1" data-name="Layer 1"><path class="cls-3" d="M703.73,745.55l-16.16-29.42a9.57,9.57,0,0,0,8-9.4v-43.4a21,21,0,0,0-21-21H647.06a21.25,21.25,0,0,0-21.22,21.22v43.16a9.38,9.38,0,0,0,8,9.4l-15.91,29.42a4.75,4.75,0,0,0,1.93,6.51,3.58,3.58,0,0,0,2.17.48,4.67,4.67,0,0,0,4.1-2.41l1.45-2.41h66.55l1.45,2.41a4.48,4.48,0,0,0,4.1,2.41,7,7,0,0,0,2.17-.48A4.75,4.75,0,0,0,703.73,745.55Zm-22.67-21.7H640.55l4.1-7.48H677Zm-0.72-16.16a7,7,0,1,1,7-7A7.16,7.16,0,0,1,680.34,707.7Zm-46.06-41.48a13.43,13.43,0,0,1,13.26-13.5h26.28a13.64,13.64,0,0,1,13.5,13.5v11.57a4.64,4.64,0,0,1-4.82,4.58h-43.4a4.58,4.58,0,0,1-4.58-4.58l-0.24-11.57h0Zm7,27.25a7,7,0,1,1-7,7A7,7,0,0,1,641.28,693.47Zm-9.89,47,5.31-9.4h48.23l5.3,9.4H631.39Z" transform="translate(-617.31 -642.35)"/></g></g></g></g></svg>