<svg xmlns="http://www.w3.org/2000/svg" viewBox="0 0 59.5 113.83"><defs><style>.cls-1{isolation:isolate;}.cls-2{opacity:0.76;mix-blend-mode:darken;}.cls-3{fill:#040305;}</style></defs><title>walking</title><g class="cls-1"><g id="Web_left_panel_text" data-name="Web left panel text"><g class="cls-2"><path class="cls-3" d="M659,217.68a8.57,8.57,0,0,0,6.29-2.9,8.92,8.92,0,0,0,2.42-6.53,9.18,9.18,0,0,0-2.78-6.41,8.33,8.33,0,0,0-6.41-2.54,8.57,8.57,0,0,0-6.29,2.9,9.37,9.37,0,0,0-2.54,6.53,8.55,8.55,0,0,0,2.78,6.41A8.71,8.71,0,0,0,659,217.68Z" transform="translate(-631.99 -199.29)"/><path class="cls-3" d="M689.55,248.28L676.25,241,665.37,223.6a9.62,9.62,0,0,0-7.74-3.87,8.9,8.9,0,0,0-6,2.66l-16.45,16.69a5.32,5.32,0,0,0-1,2.18L632,259.89v0.48a4.13,4.13,0,0,0,4.11,4.11,3.58,3.58,0,0,0,2.78-1.21,5.22,5.22,0,0,0,1.33-2.66l1.69-16,5.8-5.8-5.32,44.5-9.43,21a8.47,8.47,0,0,0-.48,2.66,6.08,6.08,0,0,0,1.81,4.47,5.34,5.34,0,0,0,4.47,1.57,5.6,5.6,0,0,0,5.32-3.39L654.24,287a2.76,2.76,0,0,1,.24-0.85q0.24-.61.48-1.09a2.15,2.15,0,0,0,.24-1l1.21-10.88,10.4,35.8q1.69,4.35,6,4.11a5.8,5.8,0,0,0,4.23-1.81,6.08,6.08,0,0,0,1.81-4.47,2,2,0,0,0-.12-0.6,2,2,0,0,1-.12-0.61L664.16,256l1.69-16.21,4.11,6.53a4.32,4.32,0,0,0,1.21,1.21l14.27,8a7.92,7.92,0,0,0,1.93.48,3.79,3.79,0,0,0,2.9-1.33,4.37,4.37,0,0,0,1.21-3A3.79,3.79,0,0,0,689.55,248.28Z" transform="translate(-631.99 -199.29)"/></g></g></g></svg>