<?xml version="1.0" encoding="utf-8"?>
<!-- Generator: Adobe Illustrator 19.2.1, SVG Export Plug-In . SVG Version: 6.00 Build 0)  -->
<svg version="1.1" id="Layer_1" xmlns="http://www.w3.org/2000/svg" xmlns:xlink="http://www.w3.org/1999/xlink" x="0px" y="0px"
	 viewBox="0 0 500 500" style="enable-background:new 0 0 500 500;" xml:space="preserve">
<style type="text/css">
	.st0{fill:#098D44;}
</style>
<title>bus</title>
<g>
	<g id="Web_left_panel_text">
		<g>
			<path class="st0" d="M455.8,122.1c-4-39.8-10.5-70.7-20.9-83.1C392.6-11.2,95.5-14.7,62.1,39C53.7,52,48.2,83.3,44.2,122.1
				c-12.4,1.5-22.4,11.9-22.4,24.9v48.8c0,10.5,6.5,19.9,16.4,23.9c-2.5,76.6-0.5,156.8,3,196.6c0,30.9,20.9,25.9,20.9,25.9H81v33.3
				c0,13.4,13.4,23.9,30.4,23.9s30.4-10.5,30.4-23.9v-33.3h225.4v33.3c0,13.4,13.4,23.9,30.4,23.9c16.9,0,30.4-10.5,30.4-23.9v-33.3
				h6.5c0,0,24.4,3.5,25.9-10.9c0-39.8,2.5-127.9,0.5-211.5c10.5-3,17.9-12.9,17.4-23.9V147C478.7,133.6,468.7,123.1,455.8,122.1z
				 M134.3,46h227.9v34.3H134.3V46z M137.8,402.8c-17.9,0-32.3-14.4-32.3-32.3s14.4-32.3,32.3-32.3s32.3,14.4,32.3,32.3
				S155.7,402.8,137.8,402.8L137.8,402.8z M361.2,402.8c-17.9,0-32.3-14.4-32.3-32.3s14.4-32.3,32.3-32.3
				c17.9,0,32.3,14.4,32.3,32.3S379.1,402.8,361.2,402.8L361.2,402.8z M402,261H94.5V99.7h308L402,261L402,261z"/>
		</g>
	</g>
</g>
</svg>
