<?xml version="1.0" encoding="utf-8"?>
<!-- Generator: Adobe Illustrator 19.2.1, SVG Export Plug-In . SVG Version: 6.00 Build 0)  -->
<svg version="1.1" id="Layer_1" xmlns="http://www.w3.org/2000/svg" xmlns:xlink="http://www.w3.org/1999/xlink" x="0px" y="0px"
	 viewBox="0 0 103.3 91.8" style="enable-background:new 0 0 103.3 91.8;" xml:space="preserve">
<style type="text/css">
	.st0{fill:#CC1977;}
</style>
<title>car</title>
<g>
	<g id="Web_left_panel_text">
		<g>
			<g id="time-to-leave">
				<path class="st0" d="M91.2,5.7c-1.2-3.4-4.4-5.7-8-5.7H20.1c-3.7-0.1-6.9,2.2-8,5.7l-12,34.4V86c-0.2,3,2.1,5.6,5.1,5.7
					c0.2,0,0.4,0,0.7,0h5.7c3,0.2,5.6-2.1,5.7-5.1c0-0.2,0-0.4,0-0.7v-5.7h68.8V86c-0.2,3,2.1,5.6,5.1,5.7c0.2,0,0.4,0,0.7,0h5.7
					c3,0.2,5.6-2.1,5.7-5.1c0-0.2,0-0.4,0-0.7V40.1L91.2,5.7z M20.1,63.1c-4.8,0-8.6-3.9-8.6-8.6c0-4.8,3.9-8.6,8.6-8.6
					c4.8,0,8.6,3.9,8.6,8.6l0,0C28.6,59.2,24.8,63,20.1,63.1z M83.2,63.1c-4.8,0-8.6-3.9-8.6-8.6c0-4.8,3.9-8.6,8.6-8.6
					c4.8,0,8.6,3.9,8.6,8.6l0,0C91.7,59.2,87.9,63,83.2,63.1z M11.5,34.4l8.6-25.8h63.1l8.6,25.8H11.5z"/>
			</g>
		</g>
	</g>
</g>
</svg>
