<?xml version="1.0" encoding="utf-8"?>
<!-- Generator: Adobe Illustrator 19.2.1, SVG Export Plug-In . SVG Version: 6.00 Build 0)  -->
<svg version="1.1" id="Layer_1" xmlns="http://www.w3.org/2000/svg" xmlns:xlink="http://www.w3.org/1999/xlink" x="0px" y="0px"
	 viewBox="0 0 500 500" style="enable-background:new 0 0 500 500;" xml:space="preserve">
<style type="text/css">
	.st0{fill:#0099CA;}
</style>
<title>train</title>
<g>
	<g id="Web_left_panel_text">
		<g>
			<g id="Layer_1_1_">
				<path class="st0" d="M444.1,467.8l-72.9-133.5c20.9-3.6,36.2-21.4,36.2-42.8V95.3c0-52.5-42.8-95.3-95.3-95.3H187.8
					c-53.5,0-96.3,43.3-96.3,96.3V292c-0.5,21.4,15.3,39.2,36.2,42.8l-71.9,133c-5.6,10.2-2,23.4,8.2,29h0.5c3.1,1.5,6.6,2.5,9.7,2
					c7.6,0,14.8-4.1,18.3-10.7l6.6-10.7h301.7l6.6,10.7c3.6,7.1,10.7,11.2,18.3,10.7c3.6,0,6.6-1,9.7-2
					C446.2,491.3,450.3,478.5,444.1,467.8C444.7,467.8,444.7,467.8,444.1,467.8z M341.7,369.5H158.2l18.3-34.1h146.8L341.7,369.5z
					 M338.6,296.1c-17.3,0-31.6-14.3-31.6-31.6s14.3-31.6,31.6-31.6c17.3,0,31.6,14.3,31.6,31.6C369.7,281.8,356,296.1,338.6,296.1
					L338.6,296.1z M129.7,108c0-33.6,26.5-60.6,60.1-61.2h119.3c33.6,0.5,60.6,27.5,61.2,61.2v52.5c0,11.7-9.7,20.9-21.4,20.9h-0.5
					H151.6c-11.2,0-20.9-9.2-20.9-20.9l0,0L129.7,108L129.7,108z M161.3,231.9c17.3,0,31.6,14.3,31.6,31.6s-14.3,31.6-31.6,31.6
					s-31.6-14.3-31.6-31.6S144,231.9,161.3,231.9L161.3,231.9z M116.5,444.9l24-42.8H359l24,42.8H116.5z"/>
			</g>
		</g>
	</g>
</g>
</svg>
