<?xml version="1.0" encoding="utf-8"?>
<!-- Generator: Adobe Illustrator 19.2.1, SVG Export Plug-In . SVG Version: 6.00 Build 0)  -->
<svg version="1.1" id="Layer_1" xmlns="http://www.w3.org/2000/svg" xmlns:xlink="http://www.w3.org/1999/xlink" x="0px" y="0px"
	 viewBox="0 0 100 100" style="enable-background:new 0 0 100 100;" xml:space="preserve">
<style type="text/css">
	.st0{opacity:0.76;}
	.st1{fill:#DECF22;}
</style>
<title>walking</title>
<g>
	<g id="Web_left_panel_text">
		<g class="st0">
			<path class="st1" d="M51.4,16.3c2.1,0,4.1-1,5.5-2.5s2.2-3.6,2.1-5.7C59,6,58.1,4,56.6,2.5C55.2,1,53.1,0.2,51,0.3
				c-2.1,0-4.1,1-5.5,2.5c-1.5,1.5-2.2,3.6-2.2,5.7s0.9,4.2,2.4,5.6C47.2,15.6,49.3,16.4,51.4,16.3z"/>
			<path class="st1" d="M78.1,43.1l-11.6-6.4L57,21.5c-1.6-2.1-4.1-3.4-6.8-3.4c-2,0.1-3.9,0.9-5.2,2.3L30.6,35
				c-0.4,0.6-0.7,1.2-0.9,1.9l-1.9,16.3v0.4c0,2,1.6,3.6,3.6,3.6c0.9,0,1.8-0.4,2.4-1.1c0.6-0.6,1-1.5,1.2-2.3l1.5-14l5.1-5.1
				l-4.7,38.9L28.7,92c-0.3,0.7-0.4,1.5-0.4,2.3c0,1.5,0.5,2.9,1.6,3.9c1,1,2.5,1.5,3.9,1.4c2,0.1,3.9-1.1,4.7-3l8.9-19.8
				c0-0.3,0.1-0.5,0.2-0.7c0.1-0.4,0.3-0.7,0.4-1c0.1-0.3,0.2-0.6,0.2-0.9l1.1-9.5L58.4,96c1,2.5,2.7,3.7,5.2,3.6
				c1.4,0,2.7-0.6,3.7-1.6s1.6-2.4,1.6-3.9c0-0.2,0-0.4-0.1-0.5c-0.1-0.2-0.1-0.4-0.1-0.5L56,49.8l1.5-14.2l3.6,5.7
				c0.3,0.4,0.6,0.8,1.1,1.1l12.5,7c0.5,0.2,1.1,0.4,1.7,0.4c1,0,1.9-0.4,2.5-1.2C79.6,47.9,80,47,80,46
				C79.9,44.8,79.2,43.7,78.1,43.1z"/>
		</g>
	</g>
</g>
</svg>
