<?xml version="1.0" encoding="utf-8"?>
<!-- Generator: Adobe Illustrator 19.2.1, SVG Export Plug-In . SVG Version: 6.00 Build 0)  -->
<svg version="1.1" id="Layer_1" xmlns="http://www.w3.org/2000/svg" xmlns:xlink="http://www.w3.org/1999/xlink" x="0px" y="0px"
	 viewBox="0 0 500 500" style="enable-background:new 0 0 500 500;" xml:space="preserve">
<style type="text/css">
	.st0{opacity:0.76;}
	.st1{fill:#DECF22;}
</style>
<title>walking</title>
<g>
	<g id="Web_left_panel_text">
		<g class="st0">
			<path class="st1" d="M246.3,80.6c10.6,0,20.6-5,27.7-12.6c7-7.6,11.1-18.1,10.6-28.7c0-10.6-4.5-20.6-12.1-28.2
				c-7-7.6-17.6-11.6-28.2-11.1c-10.6,0-20.6,5-27.7,12.6c-7.6,7.6-11.1,18.1-11.1,28.7s4.5,21.1,12.1,28.2
				C225.2,77.1,235.8,81.1,246.3,80.6z"/>
			<path class="st1" d="M380.8,215.5l-58.4-32.2l-47.8-76.5c-8.1-10.6-20.6-17.1-34.2-17.1c-10.1,0.5-19.6,4.5-26.2,11.6l-72.5,73.5
				c-2,3-3.5,6-4.5,9.6l-9.6,82.1v2c0,10.1,8.1,18.1,18.1,18.1c4.5,0,9.1-2,12.1-5.5c3-3,5-7.6,6-11.6l7.6-70.5l25.7-25.7L173.3,369
				l-41.3,92.6c-1.5,3.5-2,7.6-2,11.6c0,7.6,2.5,14.6,8.1,19.6c5,5,12.6,7.6,19.6,7c10.1,0.5,19.6-5.5,23.7-15.1l44.8-99.7
				c0-1.5,0.5-2.5,1-3.5c0.5-2,1.5-3.5,2-5c0.5-1.5,1-3,1-4.5l5.5-47.8l45.8,157.6c5,12.6,13.6,18.6,26.2,18.1c7,0,13.6-3,18.6-8.1
				s8.1-12.1,8.1-19.6c0-1,0-2-0.5-2.5c-0.5-1-0.5-2-0.5-2.5l-63.9-218l7.6-71.5l18.1,28.7c1.5,2,3,4,5.5,5.5l62.9,35.2
				c2.5,1,5.5,2,8.6,2c5,0,9.6-2,12.6-6c3.5-3.5,5.5-8.1,5.5-13.1C389.8,224.1,386.3,218.5,380.8,215.5z"/>
		</g>
	</g>
</g>
</svg>
